D:\school\WTK\thesis\model\3dpredictsim\Results\batch_windlass\Pog_s1_tmt_aCst_d00_k800_WL20_ig24_pas_GRF.mot
nRows=12
nColumns=19

name D:\school\WTK\thesis\model\3dpredictsim\Results\batch_windlass\Pog_s1_tmt_aCst_d00_k800_WL20_ig24_pas_GRF.mot
datacolumns 19
datarows 12
range 0.5259997690 0.6417197182
endheader
time 	ground_force_vx	ground_force_vy	ground_force_vz	ground_force_px	ground_force_py	ground_force_pz	1_ground_force_vx	1_ground_force_vy	1_ground_force_vz	1_ground_force_px	1_ground_force_py	1_ground_force_pz	ground_torque_x	ground_torque_y	ground_torque_z	1_ground_torque_x	1_ground_torque_y	1_ground_torque_z
        0.5259997690	       92.3203200776	      423.7300863317	       -2.4769302966	        0.3208510901	        0.0000000000	        0.0349023592	      -72.6334474322	       62.4028760541	      -24.5538460809	        0.7919193609	        0.0000000000	       -0.0482752021	        0.0000000000	        0.0000000000	        0.0000000000	        0.0000000000	        0.0000000000	        0.0000000000	
        0.5365197644	       62.3959930117	      325.2521119851	        6.8973532515	        0.3273315570	        0.0000000000	        0.0321635842	     -145.8063679405	      154.4078428203	      -61.1851316899	        0.8047765617	        0.0000000000	       -0.0476823120	        0.0000000000	        0.0000000000	        0.0000000000	        0.0000000000	        0.0000000000	        0.0000000000	
        0.5470397597	       29.5924212540	      216.6488469173	       12.5124317426	        0.3392038177	        0.0000000000	        0.0262299100	      -70.8769632211	      350.7524076541	      -28.8789067300	        0.8182270746	        0.0000000000	       -0.0465582293	        0.0000000000	        0.0000000000	        0.0000000000	        0.0000000000	        0.0000000000	        0.0000000000	
        0.5575597551	       10.0330753458	      155.9662042477	       15.6961922694	        0.3489980918	        0.0000000000	        0.0204682305	      -92.2087692617	      626.5792500979	        1.9587960152	        0.8293095572	        0.0000000000	       -0.0454150396	        0.0000000000	        0.0000000000	        0.0000000000	        0.0000000000	        0.0000000000	        0.0000000000	
        0.5680797505	        2.3314306879	      122.3009595759	       15.9662183680	        0.3488907500	        0.0000000000	        0.0206172421	     -116.9678475594	      852.4327176894	        9.6493486344	        0.8373204208	        0.0000000000	       -0.0441070207	        0.0000000000	        0.0000000000	        0.0000000000	        0.0000000000	        0.0000000000	        0.0000000000	
        0.5785997459	       -5.2879296921	       81.4016210326	       14.3599221251	        0.3488926003	        0.0000000000	        0.0206532426	     -126.9801752165	      923.9278235778	       10.1464515524	        0.8416054932	        0.0000000000	       -0.0432248809	        0.0000000000	        0.0000000000	        0.0000000000	        0.0000000000	        0.0000000000	        0.0000000000	
        0.5891197413	      -13.4443732437	       35.0717595733	        7.4720553602	        0.3477441555	        0.0000000000	        0.0203755462	     -119.0425190884	      907.5569296872	       11.5399421891	        0.8441352724	        0.0000000000	       -0.0425852990	        0.0000000000	        0.0000000000	        0.0000000000	        0.0000000000	        0.0000000000	        0.0000000000	
        0.5996397366	        0.0770051820	       -0.0734107214	       -0.0017096344	        0.0000000000	        0.0000000000	        0.0000000000	     -107.2665863205	      867.5985606560	       12.0732230899	        0.8464786538	        0.0000000000	       -0.0421143891	        0.0000000000	        0.0000000000	        0.0000000000	        0.0000000000	        0.0000000000	        0.0000000000	
        0.6101597320	        0.0002650394	       -0.0002132692	        0.0000084502	        0.0000000000	        0.0000000000	        0.0000000000	      -93.0744001180	      820.9939470248	       13.0166216485	        0.8487063821	        0.0000000000	       -0.0417661114	        0.0000000000	        0.0000000000	        0.0000000000	        0.0000000000	        0.0000000000	        0.0000000000	
        0.6206797274	        0.0001132727	       -0.0000814160	        0.0000050667	        0.0000000000	        0.0000000000	        0.0000000000	      -79.3683997643	      775.0430206221	       13.8590373792	        0.8510512607	        0.0000000000	       -0.0415359998	        0.0000000000	        0.0000000000	        0.0000000000	        0.0000000000	        0.0000000000	        0.0000000000	
        0.6311997228	        0.0004620446	       -0.0003042415	        0.0000235684	        0.0000000000	        0.0000000000	        0.0000000000	      -66.9517435006	      734.1868580696	       14.4175879891	        0.8535819034	        0.0000000000	       -0.0414098748	        0.0000000000	        0.0000000000	        0.0000000000	        0.0000000000	        0.0000000000	        0.0000000000	
        0.6417197182	        0.0061937915	       -0.0037737840	        0.0003550274	        0.0000000000	        0.0000000000	        0.0000000000	      -55.6824831419	      700.6734630107	       16.2681444415	        0.8570846062	        0.0000000000	       -0.0413236523	        0.0000000000	        0.0000000000	        0.0000000000	        0.0000000000	        0.0000000000	        0.0000000000	
